<svg xmlns="http://www.w3.org/2000/svg" width="900" height="520" viewBox="0 0 900 520" role="img" aria-labelledby="chart-title chart-desc"><title id="chart-title">Epsilon vs macro RMSE</title><desc id="chart-desc">Mean across eight locked T3 regimes. Axes show the ordered setting and metric value.</desc><rect width="900" height="520" fill="#0b1020"/><text x="55" y="45" fill="#edf2ff" font-size="24" font-family="sans-serif">Epsilon vs macro RMSE</text><text x="55" y="72" fill="#aebbd8" font-size="14.5" font-family="sans-serif">Mean across eight locked T3 regimes</text><line x1="80.0" y1="425.0" x2="820.0" y2="425.0" stroke="#72809f"/><line x1="80.0" y1="105.0" x2="80.0" y2="425.0" stroke="#72809f"/><line x1="80.0" y1="425.0" x2="820.0" y2="425.0" stroke="#2a3554"/><text x="72.0" y="429.0" text-anchor="end" fill="#aebbd8" font-size="12.5" font-family="sans-serif">0</text><line x1="80.0" y1="345.0" x2="820.0" y2="345.0" stroke="#2a3554"/><text x="72.0" y="349.0" text-anchor="end" fill="#aebbd8" font-size="12.5" font-family="sans-serif">0.00257</text><line x1="80.0" y1="265.0" x2="820.0" y2="265.0" stroke="#2a3554"/><text x="72.0" y="269.0" text-anchor="end" fill="#aebbd8" font-size="12.5" font-family="sans-serif">0.00514</text><line x1="80.0" y1="185.0" x2="820.0" y2="185.0" stroke="#2a3554"/><text x="72.0" y="189.0" text-anchor="end" fill="#aebbd8" font-size="12.5" font-family="sans-serif">0.0077</text><line x1="80.0" y1="105.0" x2="820.0" y2="105.0" stroke="#2a3554"/><text x="72.0" y="109.0" text-anchor="end" fill="#aebbd8" font-size="12.5" font-family="sans-serif">0.0103</text><text x="80.0" y="450" text-anchor="middle" fill="#aebbd8" font-size="13.5" font-family="sans-serif">0.25</text><text x="228.0" y="450" text-anchor="middle" fill="#aebbd8" font-size="13.5" font-family="sans-serif">0.5</text><text x="376.0" y="450" text-anchor="middle" fill="#aebbd8" font-size="13.5" font-family="sans-serif">1</text><text x="524.0" y="450" text-anchor="middle" fill="#aebbd8" font-size="13.5" font-family="sans-serif">2</text><text x="672.0" y="450" text-anchor="middle" fill="#aebbd8" font-size="13.5" font-family="sans-serif">4</text><text x="820.0" y="450" text-anchor="middle" fill="#aebbd8" font-size="13.5" font-family="sans-serif">8</text><circle cx="80.0" cy="105.0" r="5" fill="#f7c873"/><circle cx="228.0" cy="120.8" r="5" fill="#f7c873"/><circle cx="376.0" cy="124.5" r="5" fill="#f7c873"/><circle cx="524.0" cy="129.7" r="5" fill="#f7c873"/><circle cx="672.0" cy="131.4" r="5" fill="#f7c873"/><circle cx="820.0" cy="133.5" r="5" fill="#f7c873"/><polyline points="80.0,105.0 228.0,120.8 376.0,124.5 524.0,129.7 672.0,131.4 820.0,133.5" fill="none" stroke="#f7c873" stroke-width="3"/><text x="660" y="95" text-anchor="end" fill="#f7c873" font-size="14.5" font-family="sans-serif">B3</text><circle cx="80.0" cy="136.7" r="5" fill="#6ea8fe"/><circle cx="228.0" cy="161.6" r="5" fill="#6ea8fe"/><circle cx="376.0" cy="179.3" r="5" fill="#6ea8fe"/><circle cx="524.0" cy="192.7" r="5" fill="#6ea8fe"/><circle cx="672.0" cy="193.6" r="5" fill="#6ea8fe"/><circle cx="820.0" cy="220.4" r="5" fill="#6ea8fe"/><polyline points="80.0,136.7 228.0,161.6 376.0,179.3 524.0,192.7 672.0,193.6 820.0,220.4" fill="none" stroke="#6ea8fe" stroke-width="3"/><text x="770" y="95" text-anchor="end" fill="#6ea8fe" font-size="14.5" font-family="sans-serif">PRISM</text><text x="55" y="500" fill="#aebbd8" font-size="13.5" font-family="sans-serif">Source: locked canonical evidence · research benchmark</text></svg>